<svg width="31" height="31" viewBox="0 0 31 31" fill="none" xmlns="http://www.w3.org/2000/svg">
<path d="M26.38 20.0579C24.7176 18.3956 22.739 17.165 20.5801 16.4201C22.8923 14.8276 24.4113 12.1625 24.4113 9.14883C24.4113 4.28349 20.453 0.325195 15.5877 0.325195C10.7224 0.325195 6.76406 4.28349 6.76406 9.14883C6.76406 12.1625 8.2831 14.8276 10.5953 16.4201C8.4365 17.165 6.45786 18.3956 4.7955 20.0579C1.91279 22.9407 0.325195 26.7734 0.325195 30.8502H2.70996C2.70996 23.7494 8.48688 17.9725 15.5877 17.9725C22.6885 17.9725 28.4654 23.7494 28.4654 30.8502H30.8502C30.8502 26.7734 29.2626 22.9407 26.38 20.0579ZM15.5877 15.5877C12.0373 15.5877 9.14883 12.6993 9.14883 9.14883C9.14883 5.59839 12.0373 2.70996 15.5877 2.70996C19.1381 2.70996 22.0266 5.59839 22.0266 9.14883C22.0266 12.6993 19.1381 15.5877 15.5877 15.5877Z" fill="#00988A"/>
</svg>
